<svg width='5rem' xmlns:cc="http://creativecommons.org/ns#" xmlns:dc="http://purl.org/dc/elements/1.1/" xmlns:rdf="http://www.w3.org/1999/02/22-rdf-syntax-ns#" xmlns:svg="http://www.w3.org/2000/svg" xmlns="http://www.w3.org/2000/svg" xmlns:xlink="http://www.w3.org/1999/xlink" id="svg6186" x="0px" y="0px" viewBox="0 0 75 26.8" style="enable-background:new 0 0 75 26.8;" xml:space="preserve"> <g id="layer1" transform="translate(-130.18539,-454.36822)"> <g id="layer1-26" transform="translate(306.17505,348.57206)"> <path id="rect5444" d="M-176,105.8v26.8h26.7v-26.8H-176z M-148,105.8v26.8h47v-26.8H-148z M-159.9,107.8L-159.9,107.8 c-4.7,1.8-10.2,6.7-10.2,13.8c0,4.3,1.8,7.4,3.1,9h-3.1c-1.6-2-2.6-5.4-2.1-9C-170.8,111.3-162.7,108.5-159.9,107.8L-159.9,107.8z M-158.9,111.2c7.9,0,6,8.8,6,8.8h-10.2c0,0.6-0.1,1.3,0,1.9c0,1.4,1.3,4.1,4.4,4.1c3,0,4.5-1.7,4.5-1.7l0.6,0.5 c-0.4,0.6-0.8,1.1-1.3,1.6c-0.8,0.8-1.7,1.4-2.7,1.8c-1,0.4-2.2,0.6-3.4,0.6c-1.3,0-2.3-0.2-3.3-0.6c-0.9-0.4-1.7-1-2.3-1.8 c-0.6-0.8-1-1.7-1.2-2.8c-0.2-1.1-0.3-2.3-0.1-3.6c0.2-1.3,0.5-2.5,1-3.6c0.5-1.1,1.1-2,1.9-2.8c0.8-0.8,1.7-1.4,2.7-1.8 C-161.3,111.4-160.1,111.2-158.9,111.2L-158.9,111.2z M-159.2,112.8c-0.5,0-0.9,0.2-1.3,0.5c-0.4,0.3-0.7,0.7-1,1.2 c-0.3,0.5-0.5,1-0.7,1.6c-0.2,0.6-0.3,1.1-0.4,1.6c0,0.1,0,0.3-0.1,0.4h5.2c0-0.1,0.1-0.3,0.1-0.4c0.1-0.5,0.1-1.1,0.2-1.6 c0-0.6,0-1.1-0.2-1.6c-0.1-0.5-0.3-0.9-0.6-1.2C-158.3,113-158.7,112.8-159.2,112.8L-159.2,112.8z M-121.9,114 c0.9,0,1.7,0.1,2.4,0.4c0.7,0.3,1.3,0.7,1.8,1.2c0.5,0.5,0.9,1.2,1.1,1.9c0.3,0.7,0.4,1.6,0.4,2.5c0,0.9-0.1,1.7-0.4,2.5 c-0.3,0.7-0.6,1.4-1.1,1.9c-0.5,0.5-1.1,0.9-1.8,1.2c-0.7,0.3-1.5,0.4-2.4,0.4c-0.9,0-1.7-0.1-2.4-0.4c-0.7-0.3-1.3-0.7-1.8-1.2 c-0.5-0.5-0.9-1.2-1.1-1.9c-0.3-0.7-0.4-1.6-0.4-2.5c0-0.9,0.1-1.7,0.4-2.5c0.3-0.7,0.6-1.4,1.1-1.9c0.5-0.5,1.1-0.9,1.8-1.2 C-123.6,114.2-122.8,114-121.9,114L-121.9,114z M-145.4,114.3h4.2c0.4,0,0.8,0,1.1,0.1c0.4,0.1,0.7,0.2,1,0.5 c0.3,0.2,0.5,0.5,0.7,0.8c0.2,0.3,0.2,0.7,0.2,1.2c0,0.4-0.1,0.8-0.2,1.1c-0.2,0.3-0.4,0.6-0.6,0.8c-0.3,0.2-0.6,0.4-0.9,0.5 c-0.3,0.1-0.7,0.2-1,0.2v0.2c0.1,0,0.2,0,0.2,0h0.3c0.5,0,0.8,0.1,1.2,0.3c0.3,0.2,0.6,0.4,0.8,0.7c0.2,0.3,0.4,0.6,0.5,1 c0.1,0.4,0.2,0.8,0.2,1.2v0c0,0.5-0.1,0.9-0.3,1.3c-0.2,0.4-0.4,0.7-0.7,0.9c-0.3,0.2-0.6,0.4-1,0.6c-0.4,0.1-0.8,0.2-1.2,0.2 h-4.5L-145.4,114.3z M-136.8,114.3h4.9c0.4,0,0.8,0.1,1.2,0.2c0.4,0.2,0.7,0.4,1,0.6c0.3,0.3,0.5,0.6,0.7,1 c0.2,0.4,0.2,0.8,0.2,1.2c0,0.7-0.2,1.3-0.6,1.8c-0.4,0.5-0.9,1-1.5,1.3c0.2,0.4,0.5,0.9,0.8,1.3c0.3,0.5,0.6,1,0.9,1.4 c0.3,0.5,0.7,1,1,1.4c0.3,0.4,0.7,0.8,1,1.2h-3.3c-0.5-0.7-1-1.5-1.4-2.3c-0.4-0.8-0.8-1.6-1.2-2.4h-1.1v4.6h-2.6L-136.8,114.3z M-112.5,114.3v6.7c0,0.4,0,0.7,0,1.1c0,0.4,0.1,0.7,0.2,1.1c0.1,0.3,0.3,0.6,0.6,0.8c0.3,0.2,0.6,0.3,1.1,0.3 c0.4,0,0.8-0.1,1-0.3c0.3-0.2,0.5-0.4,0.6-0.7c0.1-0.3,0.2-0.6,0.3-1c0-0.4,0.1-0.7,0.1-1.1v-7h2.4v7.3c0,3-1.5,4.5-4.4,4.5 c-0.7,0-1.3-0.1-1.9-0.3c-0.6-0.2-1.1-0.5-1.5-0.8c-0.4-0.4-0.7-0.8-0.9-1.4c-0.2-0.6-0.3-1.2-0.3-1.9v-7.1L-112.5,114.3z M-121.9,115.8c-0.5,0-1,0.1-1.3,0.4c-0.4,0.3-0.7,0.6-0.9,1.1c-0.2,0.4-0.4,0.9-0.5,1.4c-0.1,0.5-0.1,1-0.1,1.4 c0,0.4,0,0.9,0.1,1.4c0.1,0.5,0.3,0.9,0.5,1.4c0.2,0.4,0.5,0.8,0.9,1c0.4,0.3,0.8,0.4,1.3,0.4s1-0.1,1.3-0.4 c0.4-0.3,0.7-0.6,0.9-1c0.2-0.4,0.4-0.9,0.5-1.4c0.1-0.5,0.1-1,0.1-1.4c0-0.4,0-0.9-0.1-1.4c-0.1-0.5-0.3-1-0.5-1.4 c-0.2-0.4-0.5-0.8-0.9-1.1C-120.9,115.9-121.4,115.8-121.9,115.8z M-134.2,116.1v3.5h1c0.3,0,0.5-0.1,0.7-0.2 c0.2-0.1,0.4-0.2,0.5-0.4c0.1-0.2,0.2-0.4,0.3-0.6c0.1-0.2,0.1-0.5,0.1-0.7c0-0.3-0.1-0.5-0.1-0.7c-0.1-0.2-0.2-0.4-0.4-0.5 c-0.2-0.1-0.4-0.2-0.6-0.3c-0.2-0.1-0.5-0.1-0.7-0.1L-134.2,116.1z M-143,116.1v2.9c0.1,0,0.2,0,0.3,0c0.1,0,0.2,0,0.3,0 c0.5,0,0.9-0.2,1.2-0.5c0.3-0.3,0.4-0.7,0.4-1.3h0c0-0.5-0.1-0.8-0.4-0.9c-0.3-0.2-0.6-0.2-1-0.2L-143,116.1z M-142.4,120.7 c-0.1,0-0.2,0-0.3,0c-0.1,0-0.2,0-0.3,0v3.2c0.1,0,0.3,0,0.4,0c0.2,0,0.3,0,0.4,0c0.2,0,0.4,0,0.6-0.1c0.2,0,0.4-0.1,0.6-0.3 c0.2-0.1,0.3-0.3,0.4-0.5c0.1-0.2,0.2-0.4,0.2-0.7c0-0.3,0-0.6-0.1-0.9c-0.1-0.2-0.2-0.4-0.4-0.5c-0.2-0.1-0.4-0.2-0.6-0.3 C-141.8,120.7-142.1,120.7-142.4,120.7L-142.4,120.7z"/> </g> </g> </svg>